<?xml version="1.0" encoding="iso-8859-1"?>
<!-- Uploaded to: SVG Repo, www.svgrepo.com, Generator: SVG Repo Mixer Tools -->
<svg version="1.1" id="Layer_1" xmlns="http://www.w3.org/2000/svg" xmlns:xlink="http://www.w3.org/1999/xlink" 
	 viewBox="0 0 511.996 511.996" xml:space="preserve">
<path style="fill:#5D9CEC;" d="M21.335,394.65c-5.883,0-10.672-4.781-10.672-10.656V63.995c0-5.883,4.789-10.664,10.672-10.664
	h469.317c5.891,0,10.688,4.781,10.688,10.664v319.999c0,5.875-4.797,10.656-10.688,10.656H21.335z"/>
<path style="fill:#E6E9ED;" d="M490.652,42.659H21.335C9.554,42.659,0,52.214,0,63.995v319.999c0,11.78,9.554,21.343,21.335,21.343
	h469.317c11.781,0,21.344-9.562,21.344-21.343V63.995C511.996,52.214,502.434,42.659,490.652,42.659z M490.652,383.994H21.335
	V63.995h469.317V383.994z"/>
<polygon style="fill:#CCD1D9;" points="341.342,469.337 170.663,469.337 191.936,384.088 320.029,384.057 "/>
<rect x="15.944" y="341.338" style="fill:#E6E9ED;" width="480.11" height="61.03"/>
<path style="fill:#434A54;" d="M266.662,373.338c0,5.875-4.773,10.656-10.664,10.656c-5.891,0-10.664-4.781-10.664-10.656
	c0-5.906,4.773-10.688,10.664-10.688C261.889,362.65,266.662,367.432,266.662,373.338z"/>
<path style="fill:#E6E9ED;" d="M341.342,447.993H170.663c-5.891,0-10.664,4.781-10.664,10.656c0,5.906,4.773,10.688,10.664,10.688
	h170.679c5.875,0,10.654-4.781,10.654-10.688C351.996,452.774,347.217,447.993,341.342,447.993z"/>
<polygon style="opacity:0.1;fill:#FFFFFF;enable-background:new    ;" points="317.342,341.338 255.998,341.338 319.998,63.995 
	381.34,63.995 "/>
</svg>